<svg width="60" height="124" viewBox="0 0 60 124" fill="none" xmlns="http://www.w3.org/2000/svg">
<path d="M25.1711 11.3819H34.8288C36.3078 11.3819 37.5072 10.1731 37.5072 8.68239C37.5072 7.19169 36.3078 5.98291 34.8288 5.98291H25.1711C23.6921 5.98291 22.4927 7.19169 22.4927 8.68239C22.4927 10.1731 23.6921 11.3819 25.1711 11.3819Z" fill="#353535"/>
<path d="M50.8161 0H9.18389C4.11202 0 0 4.14373 0 9.25619V114.744C0 119.856 4.11137 124 9.18389 124H50.8161C55.888 124 60 119.856 60 114.744V9.25619C60 4.14439 55.8886 0 50.8161 0ZM57.0795 114.744C57.0795 118.224 54.27 121.057 50.8161 121.057H9.18389C5.7306 121.057 2.92047 118.225 2.92047 114.744V9.25619C2.92047 5.77572 5.72995 2.94346 9.18389 2.94346H50.8161C54.27 2.94346 57.0795 5.77506 57.0795 9.25619V114.744Z" fill="#353535"/>
</svg>
