<svg width="58" height="104" viewBox="0 0 58 104" fill="none" xmlns="http://www.w3.org/2000/svg">
<rect x="0.604651" y="0.604651" width="56.7907" height="102.791" rx="28.3953" stroke="#979797" stroke-width="1.2093"/>
<path d="M24.8149 61.3811V56.8873C24.8149 55.7486 25.7408 54.8234 26.8878 54.8163H31.0992C32.2513 54.8163 33.1853 55.7435 33.1853 56.8873V61.3681C33.1852 62.3557 33.9879 63.1584 34.9827 63.1656H37.8559C39.1978 63.169 40.4859 62.6422 41.436 61.7014C42.3861 60.7606 42.9201 59.483 42.9201 58.1508V45.3859C42.9201 44.3097 42.4396 43.2889 41.6081 42.5984L31.847 34.8483C30.1408 33.4928 27.7039 33.5365 26.0481 34.9525L16.497 42.5984C15.6262 43.2685 15.1058 44.2924 15.0801 45.3859V58.1378C15.0801 60.9145 17.3474 63.1656 20.1443 63.1656H22.9519C23.4309 63.169 23.8914 62.9826 24.2313 62.6475C24.5713 62.3125 24.7624 61.8566 24.7624 61.3811H24.8149Z" fill="white"/>
</svg>
