<svg width="98" height="128" viewBox="0 0 98 128" fill="none" xmlns="http://www.w3.org/2000/svg">
<g clip-path="url(#clip0_408_11777)">
<path d="M97.2467 10.6027C95.4763 4.65755 90.2098 0.334961 84.0041 0.334961H14.3491C8.14338 0.334961 2.87696 4.65755 1.10652 10.6027C0.692991 11.9895 0.470581 13.4649 0.470581 14.9935V113.318C0.470581 115.212 0.812017 117.022 1.43504 118.685C3.46597 124.123 8.49025 127.978 14.3491 127.978H84.0041C89.863 127.978 94.8872 124.123 96.9182 118.685C97.5412 117.022 97.8826 115.212 97.8826 113.318V14.9935C97.8826 13.4649 97.6602 11.9895 97.2467 10.6027ZM49.1763 3.26802C50.1598 3.26802 50.9569 4.06671 50.9569 5.05212C50.9569 6.03753 50.1598 6.83622 49.1763 6.83622C48.1928 6.83622 47.3956 6.03753 47.3956 5.05212C47.3956 4.06671 48.1928 3.26802 49.1763 3.26802ZM50.9576 125.07H47.3956V121.502H50.9576V125.07ZM93.2141 113.318C93.2141 115.302 92.6502 117.145 91.6824 118.685H6.67085C5.70299 117.145 5.13914 115.302 5.13914 113.318V14.9935C5.13914 13.4158 5.49622 11.9227 6.13217 10.6027H92.221C92.857 11.9227 93.2141 13.4152 93.2141 14.9935V113.318Z" fill="#353535"/>
</g>
<defs>
<clipPath id="clip0_408_11777">
<rect width="97.412" height="127.643" fill="white" transform="translate(0.46875 0.334961)"/>
</clipPath>
</defs>
</svg>
