<svg width="54" height="54" viewBox="0 0 54 54" fill="none" xmlns="http://www.w3.org/2000/svg">
<rect x="0.72973" y="0.72973" width="52.5405" height="52.5405" rx="26.2703" stroke="white" stroke-width="1.45946"/>
<path d="M17 36.5004H21.841V23.7949H17V36.5004Z" fill="white"/>
<path d="M24.3445 23.7939H28.0813V25.5573C28.0813 25.5573 28.6556 23.7773 32.1102 23.7773C34.9635 23.7773 37.0017 24.82 37.0017 27.6858V36.4994H33.0112C33.0112 36.4994 33.0334 29.0878 33.0549 28.8595C33.0787 28.6298 32.8348 26.7613 30.7997 26.7613C28.7645 26.7613 28.1234 28.1315 28.1234 29.1691V36.4994H24.3438V23.7939H24.3445Z" fill="white"/>
<path d="M21.8402 19.7739C21.8402 21.029 20.7574 22.0472 19.4201 22.0472C18.0828 22.0472 17 21.029 17 19.7739C17 18.5189 18.0828 17.5 19.4201 17.5C20.7574 17.5 21.8402 18.5182 21.8402 19.7739Z" fill="white"/>
</svg>
