<svg width="71" height="37" viewBox="0 0 71 37" fill="none" xmlns="http://www.w3.org/2000/svg">
<g clip-path="url(#clip0_413_469)">
<path d="M26.1654 19.322C24.4506 17.5855 22.1968 16.3824 19.6696 16.0022C18.3602 17.1629 16.6428 17.8737 14.7555 17.8737C12.8682 17.8737 11.1507 17.1631 9.84146 16.0022C4.27081 16.8406 0 21.6468 0 27.4509C0 28.1939 0.528307 28.8319 1.25819 28.9706L3.19295 29.3381C7.44107 30.1451 11.7525 30.5016 16.0568 30.4112C16.8646 24.9797 20.9034 20.6037 26.1654 19.3222V19.322Z" fill="#636363"/>
<path d="M15.003 15.4973C19.2825 15.4973 22.7517 12.0281 22.7517 7.74864C22.7517 3.46918 19.2825 0 15.003 0C10.7236 0 7.25439 3.46918 7.25439 7.74864C7.25439 12.0281 10.7236 15.4973 15.003 15.4973Z" fill="#636363"/>
<path d="M44.1897 19.322C45.9045 17.5855 48.1583 16.3824 50.6855 16.0022C51.9949 17.1629 53.7123 17.8737 55.5996 17.8737C57.4869 17.8737 59.2044 17.1631 60.5136 16.0022C66.0841 16.8406 70.3549 21.6466 70.3549 27.4509C70.3549 28.1939 69.8266 28.8319 69.0967 28.9706L67.1619 29.3381C62.9138 30.1451 58.6024 30.5016 54.2981 30.4112C53.4903 24.9797 49.4515 20.6037 44.1895 19.3222L44.1897 19.322Z" fill="#636363"/>
<path d="M35.1767 20.2253C40.1536 20.2253 44.1883 16.1906 44.1883 11.2136C44.1883 6.23666 40.1536 2.20203 35.1767 2.20203C30.1997 2.20203 26.165 6.23666 26.165 11.2136C26.165 16.1906 30.1997 20.2253 35.1767 20.2253Z" fill="#636363"/>
<path d="M40.8926 20.2251C39.37 21.5749 37.3725 22.4014 35.1777 22.4014C32.9828 22.4014 30.9854 21.5749 29.4627 20.2251C22.9845 21.2001 18.0176 26.7895 18.0176 33.5396C18.0176 34.4038 18.6319 35.1458 19.4809 35.3069L21.7309 35.7342C30.6161 37.4218 39.7396 37.4218 48.6248 35.7342L50.8748 35.3069C51.7238 35.1458 52.3381 34.4036 52.3381 33.5396C52.3381 26.7895 47.3712 21.2001 40.893 20.2251H40.8926Z" fill="#636363"/>
<path d="M54.9405 15.4973C59.22 15.4973 62.6892 12.0281 62.6892 7.74864C62.6892 3.46918 59.22 0 54.9405 0C50.6611 0 47.1919 3.46918 47.1919 7.74864C47.1919 12.0281 50.6611 15.4973 54.9405 15.4973Z" fill="#636363"/>
</g>
<defs>
<clipPath id="clip0_413_469">
<rect width="70.3537" height="37" fill="white"/>
</clipPath>
</defs>
</svg>
